<?xml version="1.0" standalone="no"?>
<!DOCTYPE svg PUBLIC "-//W3C//DTD SVG 20010904//EN"
 "http://www.w3.org/TR/2001/REC-SVG-20010904/DTD/svg10.dtd">
<svg version="1.0" xmlns="http://www.w3.org/2000/svg"
 width="320.000000pt" height="320.000000pt" viewBox="0 0 320.000000 320.000000"
 preserveAspectRatio="xMidYMid meet">

<g transform="translate(0.000000,320.000000) scale(0.100000,-0.100000)"
fill="#000000" stroke="none">
<path d="M954 2521 c-224 -61 -390 -229 -445 -451 -23 -93 -16 -232 16 -328
89 -263 459 -652 963 -1011 l102 -73 48 28 c147 85 355 238 528 387 190 164
327 324 438 510 80 133 97 189 103 328 5 102 3 126 -17 185 -35 111 -79 183
-160 264 -128 129 -283 188 -465 176 -159 -10 -279 -62 -390 -171 l-72 -70
-66 66 c-113 113 -242 168 -407 175 -83 3 -120 0 -176 -15z m-42 -208 c35 -31
14 -55 -65 -73 -40 -9 -117 2 -117 16 0 56 136 99 182 57z m-94 -132 c10 -6 4
-25 -27 -82 -57 -107 -75 -176 -74 -294 0 -55 5 -118 11 -139 6 -22 10 -41 8
-43 -6 -7 -65 114 -85 176 -57 174 11 391 122 391 18 0 38 -4 45 -9z"/>
</g>
</svg>
