<?xml version="1.0" standalone="no"?>
<!DOCTYPE svg PUBLIC "-//W3C//DTD SVG 20010904//EN"
 "http://www.w3.org/TR/2001/REC-SVG-20010904/DTD/svg10.dtd">
<svg version="1.0" xmlns="http://www.w3.org/2000/svg"
 width="320.000000pt" height="320.000000pt" viewBox="0 0 320.000000 320.000000"
 preserveAspectRatio="xMidYMid meet">

<g transform="translate(0.000000,320.000000) scale(0.100000,-0.100000)"
fill="#000000" stroke="none">
<path d="M885 2820 c-295 -46 -520 -262 -597 -575 -28 -115 -30 -328 -4 -448
85 -388 325 -717 796 -1092 152 -121 490 -345 521 -345 30 0 354 216 519 345
461 362 712 706 796 1092 26 120 24 333 -4 448 -105 421 -479 660 -877 559
-104 -27 -211 -90 -295 -174 -41 -42 -88 -99 -105 -128 -16 -28 -32 -52 -35
-52 -3 0 -15 18 -27 40 -61 106 -175 212 -288 268 -115 57 -272 81 -400 62z
m230 -114 c125 -30 222 -91 308 -194 60 -71 132 -216 155 -310 9 -40 19 -72
22 -72 3 0 13 32 22 72 23 94 95 239 155 310 142 170 346 240 564 194 111 -24
194 -71 284 -161 110 -110 166 -225 190 -397 l7 -48 -1222 0 -1222 0 7 53 c12
87 34 158 73 237 49 100 168 221 265 268 120 59 268 77 392 48z m1386 -882
c51 -26 74 -91 74 -209 0 -92 -3 -106 -32 -167 l-32 -68 50 0 c27 0 49 -3 49
-6 0 -10 -62 -97 -121 -169 -78 -96 -282 -292 -414 -398 -104 -84 -457 -327
-474 -327 -17 0 -371 243 -476 326 -144 115 -416 388 -483 486 -28 42 -52 79
-52 82 0 3 315 6 700 6 l700 0 27 39 c16 22 53 79 83 127 30 48 88 122 128
165 108 116 198 153 273 113z"/>
</g>
</svg>
