<?xml version="1.0" standalone="no"?>
<!DOCTYPE svg PUBLIC "-//W3C//DTD SVG 20010904//EN"
 "http://www.w3.org/TR/2001/REC-SVG-20010904/DTD/svg10.dtd">
<svg version="1.0" xmlns="http://www.w3.org/2000/svg"
 width="640.000000pt" height="580.000000pt" viewBox="0 0 640.000000 580.000000"
 preserveAspectRatio="xMidYMid meet">

<g transform="translate(0.000000,580.000000) scale(0.100000,-0.100000)"
fill="#000000" stroke="none">
<path d="M1285 5783 c-233 -30 -490 -130 -680 -264 -109 -78 -250 -218 -328
-326 -145 -203 -245 -467 -261 -693 -5 -65 -3 -59 13 40 56 347 170 579 401
811 240 243 512 375 870 423 58 8 85 14 60 13 -25 0 -58 -2 -75 -4z"/>
<path d="M1705 5774 c762 -87 1232 -425 1452 -1044 19 -52 32 -80 29 -62 -3
18 -23 77 -44 131 -187 475 -559 791 -1091 926 -126 32 -263 53 -381 59 -90 5
-88 5 35 -10z"/>
<path d="M4690 5784 c-14 -2 -65 -9 -115 -15 -112 -14 -292 -58 -410 -99 -296
-105 -563 -303 -734 -545 -89 -127 -222 -412 -220 -473 0 -9 15 26 33 78 50
143 99 243 183 368 257 386 680 612 1268 676 72 7 105 14 75 14 -30 -1 -66 -2
-80 -4z"/>
<path d="M5100 5775 c363 -52 630 -182 870 -424 231 -232 345 -464 401 -811
16 -99 18 -105 13 -40 -16 226 -116 490 -261 693 -78 108 -219 248 -328 326
-208 147 -487 250 -720 265 -78 5 -77 5 25 -9z"/>
<path d="M4505 5620 c-191 -21 -299 -57 -423 -140 -260 -174 -465 -395 -573
-616 -76 -154 -103 -321 -51 -312 10 2 56 45 102 97 238 265 537 470 825 565
180 59 326 79 680 95 239 11 307 26 361 76 40 38 41 44 13 79 -67 85 -353 152
-693 160 -88 3 -197 1 -241 -4z m465 -21 c182 -21 338 -60 417 -105 81 -47 78
-86 -9 -128 -65 -31 -160 -43 -403 -51 -357 -12 -566 -60 -822 -189 -198 -99
-375 -236 -573 -443 -132 -139 -146 -144 -134 -48 14 115 78 262 172 395 130
184 442 451 601 515 166 67 458 88 751 54z"/>
<path d="M1264 5575 c-165 -30 -267 -74 -404 -176 -226 -166 -421 -406 -525
-645 -84 -195 -131 -471 -84 -499 5 -4 84 71 176 165 379 390 654 554 1147
681 104 27 212 59 240 72 171 79 208 233 76 321 -53 35 -63 33 -13 -3 88 -64
106 -126 59 -206 -47 -80 -105 -108 -370 -176 -367 -95 -551 -181 -817 -381
-115 -86 -322 -281 -433 -407 -31 -35 -59 -61 -63 -57 -5 4 -7 43 -6 86 4 195
110 473 260 683 110 153 306 334 467 431 207 125 573 152 841 62 11 -3 2 3
-21 14 -95 46 -370 64 -530 35z"/>
<path d="M16 4176 c16 -241 140 -647 290 -951 244 -496 525 -810 1289 -1441
132 -109 300 -249 372 -312 500 -429 854 -829 1145 -1292 61 -97 78 -131 73
-150 -4 -19 -3 -22 5 -10 9 13 11 13 20 0 8 -12 9 -9 5 10 -12 54 292 495 524
760 288 329 499 526 1066 994 764 632 1045 945 1289 1441 150 304 274 710 290
951 l6 79 -15 -97 c-69 -477 -265 -968 -538 -1347 -235 -326 -439 -525 -1092
-1066 -402 -333 -507 -426 -726 -645 -315 -314 -563 -623 -751 -936 -35 -57
-65 -103 -68 -103 -3 0 -33 46 -68 103 -188 313 -435 620 -751 937 -217 216
-320 307 -726 644 -654 542 -857 741 -1092 1066 -273 379 -469 870 -538 1347
l-15 97 6 -79z"/>
</g>
</svg>
